Coordinates
version=1
nRows=95
nColumns=11
inDegrees=no

Units are S.I. units (second, meters, Newtons, ...)
If the header above contains a line with 'inDegrees', this indicates whether rotational values are in degrees (yes) or radians (no).

endheader
time	pelvis_tilt	pelvis_tx	pelvis_ty	hip_flexion_r	knee_angle_r	ankle_angle_r	hip_flexion_l	knee_angle_l	ankle_angle_l	lumbar_extension
210.01	0.0457413	0.303755	0.915338	-0.247415	-0.491614	0.19589	0.375926	-0.420033	0.0635876	0
210.02	0.0482962	0.305729	0.916831	-0.22693	-0.546917	0.157796	0.363023	-0.424252	0.0775882	0
210.03	0.0510849	0.307569	0.918222	-0.204124	-0.60493	0.120123	0.347596	-0.422996	0.0910334	0
210.04	0.054267	0.308754	0.919581	-0.179287	-0.666763	0.0830775	0.327959	-0.415705	0.102453	0
210.05	0.0698546	0.311947	0.921861	-0.170984	-0.724635	0.0484245	0.294001	-0.41167	0.114818	0
210.06	0.069595	0.312836	0.923414	-0.136745	-0.78809	0.00336318	0.282131	-0.409477	0.122893	0
210.07	0.0704443	0.313569	0.924868	-0.102951	-0.849169	-0.0413743	0.269704	-0.407553	0.130599	0
210.08	0.071273	0.313973	0.92595	-0.0690774	-0.906625	-0.0855679	0.2584	-0.407268	0.141826	0
210.09	0.0705225	0.314244	0.927007	-0.0338688	-0.960056	-0.126356	0.249036	-0.406831	0.151784	0
210.1	0.0692106	0.314156	0.928255	2.55961e-05	-1.00735	-0.156588	0.236493	-0.399509	0.158508	0
210.11	0.0683828	0.313987	0.929456	0.0336754	-1.05423	-0.155282	0.224255	-0.392207	0.162762	0
210.12	0.0661501	0.313264	0.930522	0.069675	-1.10134	-0.127443	0.217337	-0.390462	0.166134	0
210.13	0.0518558	0.310834	0.930827	0.123603	-1.1468	-0.094293	0.224991	-0.3848	0.16866	0
210.14	0.0523312	0.310834	0.932326	0.15166	-1.17832	-0.0603447	0.21139	-0.378848	0.174621	0
210.15	0.0525072	0.310581	0.933832	0.179062	-1.2031	-0.0293834	0.194896	-0.365929	0.176908	0
210.16	0.0518204	0.309828	0.935198	0.207082	-1.22213	-0.00707057	0.181235	-0.355616	0.179359	0
210.17	0.0649456	0.311608	0.937469	0.212469	-1.23022	0.0105838	0.150183	-0.34727	0.185369	0
210.18	0.0643844	0.311025	0.938542	0.238883	-1.24113	0.0278084	0.136881	-0.337801	0.189681	0
210.19	0.0606964	0.309507	0.939095	0.269591	-1.24813	0.0384727	0.12695	-0.326663	0.192665	0
210.2	0.0574702	0.30714	0.93983	0.298417	-1.24954	0.0437812	0.118115	-0.31853	0.193373	0
210.21	0.0422188	0.303006	0.939467	0.344675	-1.24932	0.0503207	0.126427	-0.310132	0.1909	0
210.22	0.040754	0.302259	0.94005	0.3672	-1.23819	0.0577578	0.117115	-0.304203	0.1935	0
210.23	0.0396864	0.301151	0.940518	0.386877	-1.2227	0.0673779	0.10585	-0.296371	0.199788	0
210.24	0.0378148	0.299717	0.940766	0.406378	-1.2025	0.0752365	0.0982977	-0.292369	0.205986	0
210.25	0.051003	0.300478	0.94229	0.399155	-1.17024	0.0809554	0.0703086	-0.290357	0.213629	0
210.26	0.0507151	0.299371	0.94269	0.410055	-1.13578	0.0902244	0.0579256	-0.282183	0.217188	0
210.27	0.0496014	0.298285	0.942771	0.421118	-1.09793	0.0954556	0.0460649	-0.272687	0.218341	0
210.28	0.0487015	0.297286	0.942834	0.429164	-1.05365	0.0975407	0.0345684	-0.264909	0.22257	0
210.29	0.046718	0.296039	0.942665	0.435867	-1.00363	0.0951103	0.0250087	-0.258109	0.229478	0
210.3	0.0309089	0.293069	0.941373	0.4606	-0.950877	0.0960206	0.0337107	-0.248698	0.231326	0
210.31	0.0287367	0.29178	0.940883	0.462342	-0.891837	0.0984237	0.0251465	-0.244179	0.234942	0
210.32	0.0274247	0.290221	0.940311	0.459607	-0.826364	0.0951927	0.0155718	-0.240213	0.238634	0
210.33	0.0260591	0.289116	0.939808	0.453459	-0.753633	0.0814319	0.00579322	-0.234916	0.245957	0
210.34	0.0245938	0.288409	0.939081	0.444494	-0.67792	0.065618	-0.00567653	-0.227917	0.25461	0
210.35	0.0239461	0.288042	0.938235	0.432524	-0.600864	0.0494748	-0.0182651	-0.221133	0.262328	0
210.36	0.0235594	0.287681	0.937274	0.419642	-0.523557	0.0307278	-0.029863	-0.215773	0.268415	0
210.37	0.0226845	0.287266	0.9363	0.40789	-0.44828	0.0157874	-0.0398118	-0.212213	0.276596	0
210.38	0.0216188	0.286873	0.93496	0.395229	-0.372987	0.00901296	-0.0512119	-0.20663	0.28477	0
210.39	0.0215203	0.286947	0.933395	0.37973	-0.297276	0.0081486	-0.0641599	-0.201106	0.291223	0
210.4	0.0214176	0.287181	0.931616	0.366418	-0.228103	0.0100962	-0.0760225	-0.197612	0.299191	0
210.41	0.0211436	0.287376	0.929786	0.355442	-0.16547	0.0118065	-0.0856329	-0.198178	0.313881	0
210.42	0.0208829	0.287502	0.928089	0.345137	-0.107198	0.0123403	-0.0951209	-0.199437	0.329366	0
210.43	0.021604	0.287946	0.926431	0.334701	-0.0552059	0.0145744	-0.106019	-0.200087	0.338706	0
210.44	0.022288	0.288412	0.924642	0.327868	-0.0156261	0.0197152	-0.114961	-0.204376	0.345724	0
210.45	0.0217632	0.28861	0.922961	0.327569	0.00780862	0.0253838	-0.120335	-0.212826	0.352439	0
210.46	0.021585	0.288876	0.92138	0.331811	0.0129871	0.0408393	-0.12636	-0.220742	0.364498	0
210.47	0.0199943	0.28869	0.919893	0.342637	0.00213261	0.0518619	-0.129314	-0.230662	0.377679	0
210.48	0.0177037	0.288094	0.918495	0.356692	-0.0177565	0.051763	-0.130899	-0.240698	0.387522	0
210.49	0.0160338	0.288568	0.917216	0.369498	-0.0404646	0.0418937	-0.131852	-0.251957	0.39405	0
210.5	0.0150686	0.287808	0.916085	0.37903	-0.067392	0.0327294	-0.137421	-0.260465	0.399256	0
210.51	0.0130626	0.288572	0.915164	0.392398	-0.0986759	0.0251773	-0.139555	-0.268986	0.404178	0
210.52	0.0124354	0.289104	0.914273	0.401143	-0.128877	0.0183219	-0.144707	-0.277253	0.408771	0
210.53	0.0126533	0.289286	0.913504	0.405417	-0.155475	0.0173299	-0.154744	-0.281378	0.412153	0
210.54	0.0121898	0.290953	0.912769	0.41077	-0.178697	0.0164175	-0.161903	-0.285783	0.412083	0
210.55	0.0145442	0.291678	0.912349	0.410313	-0.201492	0.0155486	-0.174199	-0.290918	0.409896	0
210.56	0.0169709	0.293379	0.912059	0.409334	-0.221312	0.0100681	-0.187153	-0.29291	0.406895	0
210.57	0.0182915	0.295135	0.911676	0.408299	-0.238275	-0.00321269	-0.197155	-0.298221	0.403562	0
210.58	0.0199616	0.296906	0.911365	0.405931	-0.252325	-0.0211315	-0.206039	-0.306735	0.396732	0
210.59	0.0381456	0.30141	0.912192	0.382753	-0.267327	-0.0381847	-0.234481	-0.318116	0.390223	0
210.6	0.0268804	0.301354	0.911527	0.397125	-0.284759	-0.0425682	-0.226467	-0.326298	0.373502	0
210.61	0.0434882	0.30552	0.912607	0.376817	-0.306106	-0.0314531	-0.25007	-0.342955	0.364206	0
210.62	0.0449241	0.307349	0.913144	0.375039	-0.327437	-0.0133229	-0.252614	-0.359982	0.35257	0
210.63	0.0465599	0.309126	0.913909	0.372332	-0.348648	0.00147629	-0.253127	-0.381381	0.336438	0
210.64	0.0482373	0.310996	0.914789	0.368128	-0.366488	0.0140662	-0.251013	-0.407487	0.315326	0
210.65	0.050635	0.312942	0.915948	0.35989	-0.378395	0.0273787	-0.246064	-0.440015	0.292825	0
210.66	0.0520436	0.314547	0.917099	0.350356	-0.385882	0.0422222	-0.234564	-0.479904	0.262975	0
210.67	0.0532006	0.315893	0.918407	0.340017	-0.390412	0.0541388	-0.220288	-0.521779	0.227413	0
210.68	0.0543938	0.317446	0.919797	0.328223	-0.392386	0.064915	-0.203528	-0.566167	0.189774	0
210.69	0.0558286	0.318906	0.921303	0.314301	-0.390725	0.0755017	-0.183946	-0.61487	0.151009	0
210.7	0.0582367	0.320805	0.922756	0.298392	-0.386534	0.0841013	-0.162902	-0.665289	0.110339	0
210.71	0.0565895	0.320747	0.924184	0.286393	-0.381743	0.0918459	-0.13698	-0.714322	0.0697253	0
210.72	0.0561401	0.321338	0.925452	0.274759	-0.378044	0.0990975	-0.108441	-0.767373	0.0294934	0
210.73	0.0550515	0.321676	0.926599	0.26558	-0.37711	0.107089	-0.0771162	-0.821883	-0.0121296	0
210.74	0.0535329	0.321442	0.927586	0.257726	-0.376537	0.113791	-0.04334	-0.87673	-0.0524278	0
210.75	0.0523661	0.321083	0.928597	0.249095	-0.375148	0.120872	-0.0104209	-0.928114	-0.0958189	0
210.76	0.0513322	0.320854	0.929567	0.23896	-0.372113	0.128326	0.0210325	-0.97436	-0.144801	0
210.77	0.0505628	0.321094	0.930614	0.226735	-0.365812	0.134632	0.0494567	-1.0142	-0.186418	0
210.78	0.0515897	0.321501	0.931862	0.210593	-0.356881	0.141072	0.0738482	-1.05125	-0.19918	0
210.79	0.0514907	0.321319	0.932951	0.196975	-0.348521	0.148777	0.100663	-1.08951	-0.178565	0
210.8	0.0505191	0.320381	0.934052	0.186239	-0.343204	0.152542	0.128845	-1.12625	-0.144921	0
210.81	0.0462778	0.3197	0.934862	0.180291	-0.336683	0.154102	0.160477	-1.15701	-0.113856	0
210.82	0.0348378	0.317433	0.935181	0.180755	-0.325226	0.15509	0.202031	-1.18492	-0.0832302	0
210.83	0.0464248	0.31878	0.937212	0.153045	-0.320905	0.162925	0.206931	-1.19806	-0.0584236	0
210.84	0.0332321	0.315689	0.937501	0.155756	-0.308484	0.165298	0.25086	-1.21687	-0.0413082	0
210.85	0.0441177	0.316906	0.939624	0.128052	-0.301099	0.16964	0.254404	-1.21865	-0.0303921	0
210.86	0.0315969	0.313719	0.939588	0.130298	-0.28875	0.16844	0.295483	-1.22685	-0.026489	0
210.87	0.0303695	0.312309	0.940154	0.118031	-0.27845	0.17139	0.316848	-1.22447	-0.0313051	0
210.88	0.0294429	0.311178	0.940939	0.105734	-0.268404	0.172699	0.336921	-1.21896	-0.0260144	0
210.89	0.0427419	0.312536	0.942719	0.0743137	-0.260513	0.176677	0.331059	-1.2018	-0.0197289	0
210.9	0.0437468	0.311828	0.943369	0.0574381	-0.247089	0.176834	0.34399	-1.18493	-0.0174162	0
210.91	0.0429958	0.310585	0.943742	0.044486	-0.236617	0.181899	0.359427	-1.16497	-0.0173917	0
210.92	0.0411069	0.309184	0.943971	0.0348156	-0.229591	0.185884	0.374739	-1.1408	-0.013496	0
210.93	0.0384553	0.307616	0.94398	0.0263878	-0.222819	0.190786	0.389371	-1.11218	-0.00653454	0
210.94	0.0365388	0.306302	0.943829	0.0159503	-0.214827	0.193873	0.401078	-1.07925	0.00295327	0
210.95	0.0348869	0.305034	0.943632	0.00379856	-0.203947	0.198509	0.410287	-1.04227	0.0147824	0
